{"asset":{"version":"2.0","generator":"Blockbench 4.10.4 glTF exporter"},"scenes":[{"nodes":[22],"name":"blockbench_export"}],"scene":0,"nodes":[{"translation":[0,-0.4375,-0.0625],"name":"leftupperhinge","mesh":0},{"translation":[0.3125,-0.4375,-0.0625],"name":"leftupperhinge","mesh":1},{"translation":[-0.125,0.0625,0],"name":"tvbox","mesh":2},{"translation":[-0.125,0.0625,0],"name":"face","mesh":3},{"translation":[0,-0.0625,-0.03125],"name":"Head","children":[0,1,2,3]},{"translation":[0.03125,-0.3125,0.03125],"name":"cube","mesh":4},{"translation":[0.15625,-0.75,-0.09375],"name":"cylinder","mesh":5},{"translation":[0.03125,-0.3125,0.03125],"name":"cube","mesh":6},{"translation":[0.15625,-0.8125,-0.09375],"name":"cylinder","mesh":7},{"translation":[0.03125,-0.125,-0.0625],"name":"cube","mesh":8},{"translation":[0,-0.3125,0.09375],"name":"LeftFoot","children":[9]},{"translation":[0,-0.3125,0],"name":"LowerLeftLeg","children":[7,8,10]},{"translation":[-0.15625,-0.0625,0],"name":"UpperLeftLeg","children":[5,6,11]},{"translation":[0.15625,-0.75,-0.09375],"name":"cylinder","mesh":9},{"translation":[-0.03125,-0.3125,0.03125],"name":"cube","mesh":10},{"translation":[0.15625,-0.8125,-0.09375],"name":"cylinder","mesh":11},{"translation":[-0.03125,-0.3125,0.03125],"name":"cube","mesh":12},{"translation":[-0.03125,-0.125,-0.0625],"name":"cube","mesh":13},{"translation":[0,-0.3125,0.09375],"name":"RightFoot","children":[17]},{"translation":[0,-0.3125,0],"name":"LowerRightLeg","children":[15,16,18]},{"translation":[0.15625,-0.0625,0],"name":"UpperRightLeg","children":[13,14,19]},{"translation":[0,0.8125,0.03125],"name":"root","children":[4,12,20]},{"children":[21]}],"bufferViews":[{"buffer":0,"byteOffset":0,"byteLength":720,"target":34962,"byteStride":12},{"buffer":0,"byteOffset":720,"byteLength":720,"target":34962,"byteStride":12},{"buffer":0,"byteOffset":1440,"byteLength":480,"target":34962,"byteStride":8},{"buffer":0,"byteOffset":1920,"byteLength":144,"target":34963},{"buffer":0,"byteOffset":2064,"byteLength":720,"target":34962,"byteStride":12},{"buffer":0,"byteOffset":2784,"byteLength":720,"target":34962,"byteStride":12},{"buffer":0,"byteOffset":3504,"byteLength":480,"target":34962,"byteStride":8},{"buffer":0,"byteOffset":3984,"byteLength":144,"target":34963},{"buffer":0,"byteOffset":4128,"byteLength":1728,"target":34962,"byteStride":12},{"buffer":0,"byteOffset":5856,"byteLength":1728,"target":34962,"byteStride":12},{"buffer":0,"byteOffset":7584,"byteLength":1152,"target":34962,"byteStride":8},{"buffer":0,"byteOffset":8736,"byteLength":432,"target":34963},{"buffer":0,"byteOffset":9168,"byteLength":96,"target":34962,"byteStride":12},{"buffer":0,"byteOffset":9264,"byteLength":96,"target":34962,"byteStride":12},{"buffer":0,"byteOffset":9360,"byteLength":64,"target":34962,"byteStride":8},{"buffer":0,"byteOffset":9424,"byteLength":24,"target":34963},{"buffer":0,"byteOffset":9448,"byteLength":288,"target":34962,"byteStride":12},{"buffer":0,"byteOffset":9736,"byteLength":288,"target":34962,"byteStride":12},{"buffer":0,"byteOffset":10024,"byteLength":192,"target":34962,"byteStride":8},{"buffer":0,"byteOffset":10216,"byteLength":72,"target":34963},{"buffer":0,"byteOffset":10288,"byteLength":720,"target":34962,"byteStride":12},{"buffer":0,"byteOffset":11008,"byteLength":720,"target":34962,"byteStride":12},{"buffer":0,"byteOffset":11728,"byteLength":480,"target":34962,"byteStride":8},{"buffer":0,"byteOffset":12208,"byteLength":144,"target":34963},{"buffer":0,"byteOffset":12352,"byteLength":288,"target":34962,"byteStride":12},{"buffer":0,"byteOffset":12640,"byteLength":288,"target":34962,"byteStride":12},{"buffer":0,"byteOffset":12928,"byteLength":192,"target":34962,"byteStride":8},{"buffer":0,"byteOffset":13120,"byteLength":72,"target":34963},{"buffer":0,"byteOffset":13192,"byteLength":720,"target":34962,"byteStride":12},{"buffer":0,"byteOffset":13912,"byteLength":720,"target":34962,"byteStride":12},{"buffer":0,"byteOffset":14632,"byteLength":480,"target":34962,"byteStride":8},{"buffer":0,"byteOffset":15112,"byteLength":144,"target":34963},{"buffer":0,"byteOffset":15256,"byteLength":288,"target":34962,"byteStride":12},{"buffer":0,"byteOffset":15544,"byteLength":288,"target":34962,"byteStride":12},{"buffer":0,"byteOffset":15832,"byteLength":192,"target":34962,"byteStride":8},{"buffer":0,"byteOffset":16024,"byteLength":72,"target":34963},{"buffer":0,"byteOffset":16096,"byteLength":720,"target":34962,"byteStride":12},{"buffer":0,"byteOffset":16816,"byteLength":720,"target":34962,"byteStride":12},{"buffer":0,"byteOffset":17536,"byteLength":480,"target":34962,"byteStride":8},{"buffer":0,"byteOffset":18016,"byteLength":144,"target":34963},{"buffer":0,"byteOffset":18160,"byteLength":288,"target":34962,"byteStride":12},{"buffer":0,"byteOffset":18448,"byteLength":288,"target":34962,"byteStride":12},{"buffer":0,"byteOffset":18736,"byteLength":192,"target":34962,"byteStride":8},{"buffer":0,"byteOffset":18928,"byteLength":72,"target":34963},{"buffer":0,"byteOffset":19000,"byteLength":720,"target":34962,"byteStride":12},{"buffer":0,"byteOffset":19720,"byteLength":720,"target":34962,"byteStride":12},{"buffer":0,"byteOffset":20440,"byteLength":480,"target":34962,"byteStride":8},{"buffer":0,"byteOffset":20920,"byteLength":144,"target":34963},{"buffer":0,"byteOffset":21064,"byteLength":288,"target":34962,"byteStride":12},{"buffer":0,"byteOffset":21352,"byteLength":288,"target":34962,"byteStride":12},{"buffer":0,"byteOffset":21640,"byteLength":192,"target":34962,"byteStride":8},{"buffer":0,"byteOffset":21832,"byteLength":72,"target":34963},{"buffer":0,"byteOffset":21904,"byteLength":288,"target":34962,"byteStride":12},{"buffer":0,"byteOffset":22192,"byteLength":288,"target":34962,"byteStride":12},{"buffer":0,"byteOffset":22480,"byteLength":192,"target":34962,"byteStride":8},{"buffer":0,"byteOffset":22672,"byteLength":72,"target":34963},{"buffer":0,"byteOffset":22744,"byteLength":4},{"buffer":0,"byteOffset":22748,"byteLength":16},{"buffer":0,"byteOffset":22764,"byteLength":64},{"buffer":0,"byteOffset":22828,"byteLength":256},{"buffer":0,"byteOffset":23084,"byteLength":64},{"buffer":0,"byteOffset":23148,"byteLength":256},{"buffer":0,"byteOffset":23404,"byteLength":64},{"buffer":0,"byteOffset":23468,"byteLength":256},{"buffer":0,"byteOffset":23724,"byteLength":64},{"buffer":0,"byteOffset":23788,"byteLength":256},{"buffer":0,"byteOffset":24044,"byteLength":4},{"buffer":0,"byteOffset":24048,"byteLength":16},{"buffer":0,"byteOffset":24064,"byteLength":4},{"buffer":0,"byteOffset":24068,"byteLength":16},{"buffer":0,"byteOffset":24084,"byteLength":64},{"buffer":0,"byteOffset":24148,"byteLength":256},{"buffer":0,"byteOffset":24404,"byteLength":64},{"buffer":0,"byteOffset":24468,"byteLength":192}],"buffers":[{"byteLength":24660,"uri":"data:application/octet-stream;base64,"}],"accessors":[{"bufferView":0,"componentType":5126,"count":60,"max":[-0.03125,0.5818375945091248,0.21875],"min":[-0.28125,0.29316243529319763,-0.03125],"type":"VEC3"},{"bufferView":1,"componentType":5126,"count":60,"max":[1,0.8660253882408142,1],"min":[-1,-0.8660253882408142,-1],"type":"VEC3"},{"bufferView":2,"componentType":5126,"count":60,"max":[1,0.375],"min":[0,0],"type":"VEC2"},{"bufferView":3,"componentType":5123,"count":72,"max":[59],"min":[0],"type":"SCALAR"},{"bufferView":4,"componentType":5126,"count":60,"max":[-0.03125,0.5818375945091248,0.21875],"min":[-0.28125,0.29316243529319763,-0.03125],"type":"VEC3"},{"bufferView":5,"componentType":5126,"count":60,"max":[1,0.8660253882408142,1],"min":[-1,-0.8660253882408142,-1],"type":"VEC3"},{"bufferView":6,"componentType":5126,"count":60,"max":[1,0.375],"min":[0,0],"type":"VEC2"},{"bufferView":7,"componentType":5123,"count":72,"max":[59],"min":[0],"type":"SCALAR"},{"bufferView":8,"componentType":5126,"count":144,"max":[0.53125,0.8125,0.5],"min":[-0.28125,0,-0.3125],"type":"VEC3"},{"bufferView":9,"componentType":5126,"count":144,"max":[1,1,1],"min":[-1,-1,-1],"type":"VEC3"},{"bufferView":10,"componentType":5126,"count":144,"max":[1,0.578125],"min":[0,0],"type":"VEC2"},{"bufferView":11,"componentType":5123,"count":216,"max":[143],"min":[0],"type":"SCALAR"},{"bufferView":12,"componentType":5126,"count":8,"max":[0.46875,0.75,-0.25],"min":[-0.21875,0.125,-0.25],"type":"VEC3"},{"bufferView":13,"componentType":5126,"count":8,"max":[0,0,-1],"min":[0,0,-1],"type":"VEC3"},{"bufferView":14,"componentType":5126,"count":8,"max":[0.6875,0.625],"min":[0,0],"type":"VEC2"},{"bufferView":15,"componentType":5123,"count":12,"max":[7],"min":[0],"type":"SCALAR"},{"bufferView":16,"componentType":5126,"count":24,"max":[0.0625,0.3125,0.0625],"min":[-0.125,0,-0.125],"type":"VEC3"},{"bufferView":17,"componentType":5126,"count":24,"max":[1,1,1],"min":[-1,-1,-1],"type":"VEC3"},{"bufferView":18,"componentType":5126,"count":24,"max":[0.37451171875,0.24951171875],"min":[0.00048828125,0.00048828125],"type":"VEC2"},{"bufferView":19,"componentType":5123,"count":36,"max":[23],"min":[0],"type":"SCALAR"},{"bufferView":20,"componentType":5126,"count":60,"max":[-0.03125,0.5818375945091248,0.21875],"min":[-0.28125,0.29316243529319763,-0.03125],"type":"VEC3"},{"bufferView":21,"componentType":5126,"count":60,"max":[1,0.8660253882408142,1],"min":[-1,-0.8660253882408142,-1],"type":"VEC3"},{"bufferView":22,"componentType":5126,"count":60,"max":[1,0.375],"min":[0,0],"type":"VEC2"},{"bufferView":23,"componentType":5123,"count":72,"max":[59],"min":[0],"type":"SCALAR"},{"bufferView":24,"componentType":5126,"count":24,"max":[0.0625,0.3125,0.0625],"min":[-0.125,0,-0.125],"type":"VEC3"},{"bufferView":25,"componentType":5126,"count":24,"max":[1,1,1],"min":[-1,-1,-1],"type":"VEC3"},{"bufferView":26,"componentType":5126,"count":24,"max":[0.37451171875,0.49951171875],"min":[0.00048828125,0.25048828125],"type":"VEC2"},{"bufferView":27,"componentType":5123,"count":36,"max":[23],"min":[0],"type":"SCALAR"},{"bufferView":28,"componentType":5126,"count":60,"max":[-0.03125,0.57216876745224,0.25],"min":[-0.28125,0.4278312027454376,0.125],"type":"VEC3"},{"bufferView":29,"componentType":5126,"count":60,"max":[1,0.8660253882408142,1],"min":[-1,-0.8660253882408142,-1],"type":"VEC3"},{"bufferView":30,"componentType":5126,"count":60,"max":[0.75,0.5625],"min":[0,0.375],"type":"VEC2"},{"bufferView":31,"componentType":5123,"count":72,"max":[59],"min":[0],"type":"SCALAR"},{"bufferView":32,"componentType":5126,"count":24,"max":[0.0625,0.125,0.0625],"min":[-0.125,0,-0.25],"type":"VEC3"},{"bufferView":33,"componentType":5126,"count":24,"max":[1,1,1],"min":[-1,-1,-1],"type":"VEC3"},{"bufferView":34,"componentType":5126,"count":24,"max":[0.49951171875,0.71826171875],"min":[0.00048828125,0.50048828125],"type":"VEC2"},{"bufferView":35,"componentType":5123,"count":36,"max":[23],"min":[0],"type":"SCALAR"},{"bufferView":36,"componentType":5126,"count":60,"max":[-0.03125,0.5818375945091248,0.21875],"min":[-0.28125,0.29316243529319763,-0.03125],"type":"VEC3"},{"bufferView":37,"componentType":5126,"count":60,"max":[1,0.8660253882408142,1],"min":[-1,-0.8660253882408142,-1],"type":"VEC3"},{"bufferView":38,"componentType":5126,"count":60,"max":[1,0.375],"min":[0,0],"type":"VEC2"},{"bufferView":39,"componentType":5123,"count":72,"max":[59],"min":[0],"type":"SCALAR"},{"bufferView":40,"componentType":5126,"count":24,"max":[0.125,0.3125,0.0625],"min":[-0.0625,0,-0.125],"type":"VEC3"},{"bufferView":41,"componentType":5126,"count":24,"max":[1,1,1],"min":[-1,-1,-1],"type":"VEC3"},{"bufferView":42,"componentType":5126,"count":24,"max":[0.87451171875,0.24951171875],"min":[0.50048828125,0.00048828125],"type":"VEC2"},{"bufferView":43,"componentType":5123,"count":36,"max":[23],"min":[0],"type":"SCALAR"},{"bufferView":44,"componentType":5126,"count":60,"max":[-0.03125,0.57216876745224,0.25],"min":[-0.28125,0.4278312027454376,0.125],"type":"VEC3"},{"bufferView":45,"componentType":5126,"count":60,"max":[1,0.8660253882408142,1],"min":[-1,-0.8660253882408142,-1],"type":"VEC3"},{"bufferView":46,"componentType":5126,"count":60,"max":[0.75,0.5625],"min":[0,0.375],"type":"VEC2"},{"bufferView":47,"componentType":5123,"count":72,"max":[59],"min":[0],"type":"SCALAR"},{"bufferView":48,"componentType":5126,"count":24,"max":[0.125,0.3125,0.0625],"min":[-0.0625,0,-0.125],"type":"VEC3"},{"bufferView":49,"componentType":5126,"count":24,"max":[1,1,1],"min":[-1,-1,-1],"type":"VEC3"},{"bufferView":50,"componentType":5126,"count":24,"max":[0.87451171875,0.49951171875],"min":[0.50048828125,0.25048828125],"type":"VEC2"},{"bufferView":51,"componentType":5123,"count":36,"max":[23],"min":[0],"type":"SCALAR"},{"bufferView":52,"componentType":5126,"count":24,"max":[0.125,0.125,0.0625],"min":[-0.0625,0,-0.25],"type":"VEC3"},{"bufferView":53,"componentType":5126,"count":24,"max":[1,1,1],"min":[-1,-1,-1],"type":"VEC3"},{"bufferView":54,"componentType":5126,"count":24,"max":[0.99951171875,0.71826171875],"min":[0.50048828125,0.50048828125],"type":"VEC2"},{"bufferView":55,"componentType":5123,"count":36,"max":[23],"min":[0],"type":"SCALAR"},{"bufferView":56,"componentType":5126,"count":1,"max":[0],"min":[0],"type":"SCALAR"},{"bufferView":57,"componentType":5126,"count":1,"max":[0,0,0,1],"min":[0,0,0,1],"type":"VEC4"},{"bufferView":58,"componentType":5126,"count":16,"max":[1],"min":[0],"type":"SCALAR"},{"bufferView":59,"componentType":5126,"count":16,"max":[0.3826834261417389,0,0,1],"min":[0,0,0,0.9238795042037964],"type":"VEC4"},{"bufferView":60,"componentType":5126,"count":16,"max":[1],"min":[0],"type":"SCALAR"},{"bufferView":61,"componentType":5126,"count":16,"max":[0.3826834261417389,0,0,1],"min":[0,0,0,0.9238795042037964],"type":"VEC4"},{"bufferView":62,"componentType":5126,"count":16,"max":[1],"min":[0],"type":"SCALAR"},{"bufferView":63,"componentType":5126,"count":16,"max":[0,0,0,1],"min":[-0.3826834261417389,0,0,0.9238795042037964],"type":"VEC4"},{"bufferView":64,"componentType":5126,"count":16,"max":[1],"min":[0],"type":"SCALAR"},{"bufferView":65,"componentType":5126,"count":16,"max":[0,0,0,1],"min":[-0.3826834261417389,0,0,0.9238795042037964],"type":"VEC4"},{"bufferView":66,"componentType":5126,"count":1,"max":[0],"min":[0],"type":"SCALAR"},{"bufferView":67,"componentType":5126,"count":1,"max":[0,0,0,1],"min":[0,0,0,1],"type":"VEC4"},{"bufferView":68,"componentType":5126,"count":1,"max":[0],"min":[0],"type":"SCALAR"},{"bufferView":69,"componentType":5126,"count":1,"max":[0,0,0,1],"min":[0,0,0,1],"type":"VEC4"},{"bufferView":70,"componentType":5126,"count":16,"max":[1],"min":[0],"type":"SCALAR"},{"bufferView":71,"componentType":5126,"count":16,"max":[0,0,0,1],"min":[-0.19509032368659973,0,0,0.9807852506637573],"type":"VEC4"},{"bufferView":72,"componentType":5126,"count":16,"max":[1],"min":[0],"type":"SCALAR"},{"bufferView":73,"componentType":5126,"count":16,"max":[0,0.8125,0.03125],"min":[0,0.7250000238418579,0.012500000186264515],"type":"VEC3"}],"materials":[{"pbrMetallicRoughness":{"metallicFactor":0,"roughnessFactor":1,"baseColorTexture":{"index":0}},"alphaMode":"MASK","alphaCutoff":0.05,"doubleSided":true},{"pbrMetallicRoughness":{"metallicFactor":0,"roughnessFactor":1,"baseColorTexture":{"index":1}},"alphaMode":"MASK","alphaCutoff":0.05,"doubleSided":true},{"pbrMetallicRoughness":{"metallicFactor":0,"roughnessFactor":1,"baseColorTexture":{"index":2}},"alphaMode":"MASK","alphaCutoff":0.05,"doubleSided":true},{"pbrMetallicRoughness":{"metallicFactor":0,"roughnessFactor":1,"baseColorTexture":{"index":3}},"alphaMode":"MASK","alphaCutoff":0.05,"doubleSided":true}],"textures":[{"sampler":0,"source":0,"name":"texture"},{"sampler":1,"source":1,"name":"texture"},{"sampler":2,"source":2,"name":"texture"},{"sampler":3,"source":3,"name":"texture"}],"samplers":[{"magFilter":9728,"minFilter":9728,"wrapS":33071,"wrapT":33071},{"magFilter":9728,"minFilter":9728,"wrapS":33071,"wrapT":33071},{"magFilter":9728,"minFilter":9728,"wrapS":33071,"wrapT":33071},{"magFilter":9728,"minFilter":9728,"wrapS":33071,"wrapT":33071}],"images":[{"mimeType":"image/png","uri":"data:image/png;base64,"},{"mimeType":"image/png","uri":"data:image/png;base64,"},{"mimeType":"image/png","uri":"data:image/png;base64,"},{"mimeType":"image/png","uri":"data:image/png;base64,"}],"meshes":[{"primitives":[{"mode":4,"attributes":{"POSITION":0,"NORMAL":1,"TEXCOORD_0":2},"indices":3,"material":0}]},{"primitives":[{"mode":4,"attributes":{"POSITION":4,"NORMAL":5,"TEXCOORD_0":6},"indices":7,"material":0}]},{"primitives":[{"mode":4,"attributes":{"POSITION":8,"NORMAL":9,"TEXCOORD_0":10},"indices":11,"material":1}]},{"primitives":[{"mode":4,"attributes":{"POSITION":12,"NORMAL":13,"TEXCOORD_0":14},"indices":15,"material":2}]},{"primitives":[{"mode":4,"attributes":{"POSITION":16,"NORMAL":17,"TEXCOORD_0":18},"indices":19,"material":3}]},{"primitives":[{"mode":4,"attributes":{"POSITION":20,"NORMAL":21,"TEXCOORD_0":22},"indices":23,"material":0}]},{"primitives":[{"mode":4,"attributes":{"POSITION":24,"NORMAL":25,"TEXCOORD_0":26},"indices":27,"material":3}]},{"primitives":[{"mode":4,"attributes":{"POSITION":28,"NORMAL":29,"TEXCOORD_0":30},"indices":31,"material":0}]},{"primitives":[{"mode":4,"attributes":{"POSITION":32,"NORMAL":33,"TEXCOORD_0":34},"indices":35,"material":3}]},{"primitives":[{"mode":4,"attributes":{"POSITION":36,"NORMAL":37,"TEXCOORD_0":38},"indices":39,"material":0}]},{"primitives":[{"mode":4,"attributes":{"POSITION":40,"NORMAL":41,"TEXCOORD_0":42},"indices":43,"material":3}]},{"primitives":[{"mode":4,"attributes":{"POSITION":44,"NORMAL":45,"TEXCOORD_0":46},"indices":47,"material":0}]},{"primitives":[{"mode":4,"attributes":{"POSITION":48,"NORMAL":49,"TEXCOORD_0":50},"indices":51,"material":3}]},{"primitives":[{"mode":4,"attributes":{"POSITION":52,"NORMAL":53,"TEXCOORD_0":54},"indices":55,"material":3}]}],"animations":[{"name":"animation","samplers":[{"input":56,"output":57,"interpolation":"LINEAR"},{"input":58,"output":59,"interpolation":"LINEAR"},{"input":60,"output":61,"interpolation":"LINEAR"},{"input":62,"output":63,"interpolation":"LINEAR"},{"input":64,"output":65,"interpolation":"LINEAR"},{"input":66,"output":67,"interpolation":"LINEAR"},{"input":68,"output":69,"interpolation":"LINEAR"},{"input":70,"output":71,"interpolation":"LINEAR"},{"input":72,"output":73,"interpolation":"LINEAR"}],"channels":[{"sampler":0,"target":{"node":4,"path":"rotation"}},{"sampler":1,"target":{"node":12,"path":"rotation"}},{"sampler":2,"target":{"node":20,"path":"rotation"}},{"sampler":3,"target":{"node":11,"path":"rotation"}},{"sampler":4,"target":{"node":19,"path":"rotation"}},{"sampler":5,"target":{"node":10,"path":"rotation"}},{"sampler":6,"target":{"node":18,"path":"rotation"}},{"sampler":7,"target":{"node":21,"path":"rotation"}},{"sampler":8,"target":{"node":21,"path":"translation"}}]}]}